<?xml version="1.0" encoding="iso-8859-1"?>
<!-- Generator: Adobe Illustrator 19.0.0, SVG Export Plug-In . SVG Version: 6.00 Build 0)  -->
<svg version="1.1" id="Capa_1" xmlns="http://www.w3.org/2000/svg" xmlns:xlink="http://www.w3.org/1999/xlink" x="0px" y="0px"
	 viewBox="0 0 60 60" style="enable-background:new 0 0 60 60;" xml:space="preserve">
<g>
	<g>
		<path d="M37.3,14.1H32c-0.6,0-1,0.4-1,1v12c0,0.6,0.4,1,1,1h1.8c0.2,0,0.3,0,0.4-0.1h3.1c1.5,0,2.8-1.3,2.8-2.8v-8.3
			C40.1,15.4,38.8,14.1,37.3,14.1z M38.1,25.2c0,0.4-0.4,0.8-0.8,0.8h-3.5c-0.1,0-0.3,0-0.4,0.1H33v-10l0,0h4.3
			c0.4,0,0.8,0.4,0.8,0.8V25.2z"/>
		<path d="M50,26h-6v-4h6v-2h-6v-4h6v-2h-7c-0.6,0-1,0.4-1,1v12c0,0.6,0.4,1,1,1h7V26z"/>
		<path d="M29,16c0-1.2-0.8-2-2-2h-5c-1.2,0-2,0.8-2,2v10c0,1.2,0.8,2,2,2h5c1.2,0,2-0.8,2-2V16z M27,26h-5V16h5V26z"/>
		<path d="M18,25h-2c0,0.6-0.4,1-1,1h-3c-0.6,0-1-0.4-1-1v-8c0-0.6,0.4-1,1-1h3c0.6,0,1,0.4,1,1h2c0-1.7-1.3-3-3-3h-3
			c-1.7,0-3,1.3-3,3v8c0,1.7,1.3,3,3,3h3C16.7,28,18,26.7,18,25z"/>
		<path d="M59,0H1C0.4,0,0,0.4,0,1v46c0,0.6,0.4,1,1,1h22v10h-3v2h4h12h4v-2h-3V48h22c0.6,0,1-0.4,1-1V1C60,0.4,59.6,0,59,0z M35,58
			H25V48h10V58z M58,46H36H24H2v-8h3h50h3V46z M6,36V6h48v30H6z M58,36h-2V5c0-0.6-0.4-1-1-1H5C4.4,4,4,4.4,4,5v31H2V2h56V36z"/>
		<rect x="9" y="32" width="2" height="2"/>
		<rect x="13" y="32" width="2" height="2"/>
		<rect x="17" y="32" width="2" height="2"/>
		<rect x="21" y="32" width="2" height="2"/>
		<rect x="25" y="32" width="2" height="2"/>
		<rect x="29" y="32" width="2" height="2"/>
		<rect x="33" y="32" width="2" height="2"/>
		<rect x="37" y="32" width="2" height="2"/>
		<rect x="41" y="32" width="2" height="2"/>
		<rect x="45" y="32" width="2" height="2"/>
		<rect x="49" y="32" width="2" height="2"/>
		<rect x="9" y="8" width="2" height="2"/>
		<rect x="13" y="8" width="2" height="2"/>
		<rect x="17" y="8" width="2" height="2"/>
		<rect x="21" y="8" width="2" height="2"/>
		<rect x="25" y="8" width="2" height="2"/>
		<rect x="29" y="8" width="2" height="2"/>
		<rect x="33" y="8" width="2" height="2"/>
		<rect x="37" y="8" width="2" height="2"/>
		<rect x="41" y="8" width="2" height="2"/>
		<rect x="45" y="8" width="2" height="2"/>
		<rect x="49" y="8" width="2" height="2"/>
	</g>
</g>
<g>
</g>
<g>
</g>
<g>
</g>
<g>
</g>
<g>
</g>
<g>
</g>
<g>
</g>
<g>
</g>
<g>
</g>
<g>
</g>
<g>
</g>
<g>
</g>
<g>
</g>
<g>
</g>
<g>
</g>
</svg>
