<?xml version="1.0" encoding="iso-8859-1"?>
<!-- Generator: Adobe Illustrator 17.1.0, SVG Export Plug-In . SVG Version: 6.00 Build 0)  -->
<!DOCTYPE svg PUBLIC "-//W3C//DTD SVG 1.1//EN" "http://www.w3.org/Graphics/SVG/1.1/DTD/svg11.dtd">
<svg version="1.1" id="Capa_1" xmlns="http://www.w3.org/2000/svg" xmlns:xlink="http://www.w3.org/1999/xlink" x="0px" y="0px"
	 viewBox="0 0 438.873 438.873" style="enable-background:new 0 0 438.873 438.873;" xml:space="preserve">
<path d="M169.616,159.349c18.697,0,36.254-7.537,49.438-21.222c11.37-11.804,24.635-33.626,23.254-70.553
	c-1.586-42.302-34.537-64.025-66.503-67.375c-1.952-0.205-9.572-0.261-11.095-0.125c-32.363,2.897-66.182,24.632-67.785,67.501
	c-1.381,36.926,11.884,58.748,23.254,70.552C133.362,151.812,150.919,159.349,169.616,159.349z M204.649,124.252
	c-9.379,9.736-21.82,15.098-35.033,15.098s-25.654-5.362-35.033-15.098c-9.471-9.833-15.263-23.39-17.105-39.736
	c36.163-1.93,73.615-10.655,103.971-24.188c0.464,2.542,0.768,5.201,0.872,7.995C223.207,91.991,217.096,111.331,204.649,124.252z
	 M169.616,19.791c17.004,0.685,34.285,7.795,44.237,22.035c-28.039,12.62-62.872,20.795-96.66,22.681
	C120.241,34.969,145.218,20.774,169.616,19.791z M292.856,261.535c-48.892,0-88.667,39.777-88.667,88.67
	c0,48.892,39.775,88.668,88.667,88.668c48.894,0,88.672-39.776,88.672-88.668C381.528,301.312,341.75,261.535,292.856,261.535z
	 M292.856,418.873c-37.863,0-68.667-30.804-68.667-68.668c0-37.865,30.804-68.67,68.667-68.67c37.866,0,68.672,30.805,68.672,68.67
	C361.528,388.069,330.723,418.873,292.856,418.873z M302.856,349.722l0.003,36.117c0,5.523-4.477,10-9.999,10.001
	c-5.523,0-10.001-4.477-10.001-9.999l-0.003-36.117c0-5.523,4.477-10,9.999-10.001C298.379,339.722,302.856,344.199,302.856,349.722
	z M302.859,314.575c0,5.523-4.478,9.997-10,9.997s-10.003-4.475-10.003-9.998s4.476-9.996,9.998-9.996h0.005
	C298.382,304.578,302.859,309.052,302.859,314.575z M171.723,373.578c0,5.523-4.477,10-10,10H67.345
	c-2.972,0-5.789-1.226-7.688-3.511c-1.9-2.284-2.686-5.2-2.144-8.122l23.591-127.234c8.27-44.653,50.457-64.643,88.598-64.643
	c40.772,0,74.404,21.024,85.682,53.565c1.809,5.218-0.955,10.909-6.174,12.717c-5.218,1.809-10.915-0.968-12.723-6.186
	c-10.263-29.61-42.391-40.141-66.785-40.141c-29.86,0-62.756,14.882-68.933,48.238L79.369,363.578h82.354
	C167.245,363.578,171.723,368.056,171.723,373.578z"/>
<g>
</g>
<g>
</g>
<g>
</g>
<g>
</g>
<g>
</g>
<g>
</g>
<g>
</g>
<g>
</g>
<g>
</g>
<g>
</g>
<g>
</g>
<g>
</g>
<g>
</g>
<g>
</g>
<g>
</g>
</svg>
