<svg width="82" height="24" viewBox="0 0 82 24" fill="none" xmlns="http://www.w3.org/2000/svg">
<path d="M22.2651 16.005C20.0015 16.005 18.503 14.2527 18.085 13.5739C18.6213 9.27986 20.1908 7.92219 22.2651 7.92219C24.3158 7.92219 25.909 9.56402 25.909 11.9636C25.9169 14.3632 24.3158 16.005 22.2651 16.005ZM22.2651 5.2858C18.574 5.2858 16.5076 7.69329 15.916 10.1718C15.2456 8.90887 14.7487 7.21968 14.3623 5.64889H9.25931V12.0031C9.25931 14.308 8.21033 16.0129 6.15968 16.0129C4.10903 16.0129 2.93385 14.308 2.93385 12.0031L2.95752 5.64889H0.015625V12.0031C0.015625 13.858 0.615045 15.5393 1.71135 16.7391C2.83921 17.9784 4.37719 18.6257 6.15968 18.6257C9.70888 18.6257 12.1854 15.9024 12.1854 12.0031V7.73275C12.5561 9.13778 13.4395 11.8373 15.1273 14.2053L13.5499 23.1959H16.5391L17.5802 16.826C17.9194 17.1101 18.2822 17.3627 18.6686 17.5916C19.6624 18.2231 20.8139 18.5783 21.997 18.6178C21.997 18.6178 22.1784 18.6257 22.273 18.6257C25.9326 18.6257 28.843 15.7919 28.843 11.9636C28.843 8.13532 25.9248 5.2858 22.2651 5.2858Z" fill="#fff"/>
<path d="M76.3001 11.3401C78.5795 10.4481 79.9991 7.95382 79.9991 5.64894H77.073C77.0809 7.96171 75.2274 9.39042 73.1058 9.39042V0.68399H70.1797V18.231H73.1058V12.8083H73.863L77.9564 18.231H81.616L76.3001 11.3401Z" fill="#fff"/>
<path d="M64.5322 7.007V5.64934H61.6455V18.2235H64.5716V13.298C64.5716 10.267 64.8477 8.0884 68.9095 8.37256V5.49936C67.0166 5.35728 65.5417 5.75195 64.5322 7.007Z" fill="#fff"/>
<path d="M44.2165 5.64941L42.0949 14.4427L39.8313 5.64941H36.1086L33.8371 14.4427L31.7234 5.64941H28.7578L32.0073 18.2315H35.5249L37.9699 9.29617L40.3913 18.2315H43.9089L47.3477 5.64941H44.2165Z" fill="#fff"/>
<path d="M53.7887 16.0133C51.7065 16.0133 50.1449 14.3714 50.1449 11.964C50.1449 9.55647 51.7144 7.92253 53.7887 7.92253C55.8394 7.92253 57.4326 9.56436 57.4326 11.964C57.4326 14.3636 55.8394 16.0133 53.7887 16.0133ZM53.7887 5.28613C50.1054 5.28613 47.2188 8.14355 47.2188 11.964C47.2188 15.7844 50.1054 18.6181 53.7887 18.6181C57.4483 18.6181 60.3587 15.7844 60.3587 11.964C60.3587 8.14355 57.4562 5.28613 53.7887 5.28613Z" fill="#fff"/>
</svg>
